<svg width="76" height="76" viewBox="0 0 76 76" fill="none" xmlns="http://www.w3.org/2000/svg">
<path d="M71.6046 42.3019C68.1659 45.5496 65.4276 48.4152 63.3899 50.8987C61.3521 53.3822 60.97 58.0945 62.2436 65.0357C63.5172 71.9768 61.6068 75.4155 56.5124 75.3518C51.418 75.2882 46.833 74.3011 42.7575 72.3907C38.682 70.4803 35.2114 68.5699 32.3458 66.6595C29.4802 64.7491 25.0226 65.5451 18.973 69.0475C12.9234 72.5499 8.02002 72.741 4.26289 69.6206C0.505767 66.5003 -0.767835 62.2019 0.442087 56.7254C1.65201 51.2489 3.84897 46.664 7.03298 42.9705C10.217 39.2771 10.8856 35.7747 9.0389 32.4633C7.19218 29.1519 6.4917 25.6495 6.93746 21.9561C7.38322 18.2626 9.45282 15.7791 13.1463 14.5055C16.8397 13.2319 19.4824 9.95239 21.0744 4.66694C22.6664 -0.61851 25.6594 -1.41451 30.0533 2.27893C34.4473 5.97238 37.9815 8.67878 40.6561 10.3981C43.3306 12.1175 46.833 12.2449 51.1633 10.7802C55.4935 9.31559 58.9641 9.88871 61.575 12.4996C64.1859 15.1105 66.7331 17.9442 69.2166 21.0009C71.7001 24.0575 73.5787 27.5599 74.8523 31.5081C76.1259 35.4563 75.0433 39.0542 71.6046 42.3019Z" fill="#792808"/>
</svg>
