<svg width="24" height="24" viewBox="0 0 24 24" fill="none" xmlns="http://www.w3.org/2000/svg">
<path d="M11.8125 7.88063C9.63562 7.88063 7.88063 9.6525 7.88063 11.8125C7.88063 13.9725 9.6525 15.7444 11.8125 15.7444C13.9725 15.7444 15.7444 13.9725 15.7444 11.8125C15.7444 9.6525 13.9725 7.88063 11.8125 7.88063ZM23.625 11.8125C23.625 10.1756 23.625 8.5725 23.5406 6.93563C23.4562 5.04563 23.0175 3.35813 21.6337 1.99125C20.25 0.6075 18.5794 0.16875 16.6894 0.0843749C15.0525 -8.17236e-08 13.4494 0 11.8125 0C10.1756 0 8.5725 -8.17236e-08 6.93563 0.0843749C5.04563 0.16875 3.35813 0.6075 1.99125 1.99125C0.6075 3.375 0.16875 5.04563 0.0843749 6.93563C-8.17236e-08 8.5725 0 10.1756 0 11.8125C0 13.4494 -8.17236e-08 15.0525 0.0843749 16.6894C0.16875 18.5794 0.6075 20.2669 1.99125 21.6337C3.375 23.0175 5.04563 23.4562 6.93563 23.5406C8.5725 23.625 10.1756 23.625 11.8125 23.625C13.4494 23.625 15.0525 23.625 16.6894 23.5406C18.5794 23.4562 20.2669 23.0175 21.6337 21.6337C23.0175 20.25 23.4562 18.5794 23.5406 16.6894C23.6419 15.0694 23.625 13.4494 23.625 11.8125ZM11.8125 17.8706C8.45438 17.8706 5.75437 15.1706 5.75437 11.8125C5.75437 8.45438 8.45438 5.75437 11.8125 5.75437C15.1706 5.75437 17.8706 8.45438 17.8706 11.8125C17.8706 15.1706 15.1706 17.8706 11.8125 17.8706ZM18.1237 6.91875C17.3475 6.91875 16.7062 6.29438 16.7062 5.50125C16.7062 4.70813 17.3306 4.08375 18.1237 4.08375C18.9169 4.08375 19.5413 4.70813 19.5413 5.50125C19.5455 5.68609 19.5118 5.86984 19.4421 6.04111C19.3724 6.21237 19.2683 6.3675 19.1362 6.49687C19.0069 6.62896 18.8517 6.73307 18.6805 6.80273C18.5092 6.8724 18.3255 6.90615 18.1406 6.90188L18.1237 6.91875Z" fill="#666161"/>
</svg>
