<svg width="198" height="132" viewBox="0 0 198 132" fill="none" xmlns="http://www.w3.org/2000/svg">
<path d="M36.667 0.338013C37.5294 0.297454 38.6471 0.354676 39.9834 0.482544C42.6578 0.738469 46.2612 1.28427 50.5566 1.94348C59.1554 3.26312 70.5664 5.03982 83.0215 5.8761C86.3343 6.09838 88.7872 9.13183 88.2334 12.4142C87.7841 15.0768 86.9239 18.1799 85.2715 20.5763C83.6674 22.9026 82.8359 25.7826 82.8359 28.84C82.8361 37.855 90.6499 45.0445 99.876 44.006C107.759 43.1184 113.782 35.4695 113.371 27.5197C113.236 24.9012 112.499 22.4724 110.974 20.6329C109.076 18.3445 108.196 15.1176 107.79 12.3527C107.307 9.06126 109.789 6.09744 113.1 5.90149C125.437 5.17078 135.85 3.67385 143.361 2.46594C147.112 1.86283 150.155 1.32871 152.338 1.0011C153.43 0.837217 154.32 0.722778 154.984 0.67688C155.316 0.653975 155.601 0.64752 155.831 0.662231C156.048 0.676103 156.266 0.711453 156.427 0.806763C156.535 0.87089 156.617 0.965881 156.679 1.05969C156.742 1.156 156.799 1.27061 156.85 1.39661C156.952 1.64861 157.045 1.97873 157.133 2.37415C157.308 3.16698 157.47 4.26735 157.622 5.63196C157.927 8.36364 158.197 12.192 158.463 16.8224C158.994 26.0788 159.508 38.5869 160.224 51.9913L160.225 52.0206C160.225 52.0283 160.225 52.0327 160.226 52.0363H160.223C160.223 52.0382 160.224 52.0401 160.224 52.0421H160.227C160.406 55.3637 163.098 57.91 166.273 57.2863C168.642 56.8211 171.184 55.979 173.114 54.4767L173.354 54.295C174.406 53.5278 175.598 52.9822 176.861 52.6007L177.449 52.4357C177.708 52.3633 177.97 52.3012 178.231 52.2462L178.234 52.2452C178.469 52.1985 178.714 52.1494 178.965 52.1124L179.364 52.0558C179.766 52.0041 180.176 51.9667 180.598 51.9464H180.599C180.607 51.946 180.616 51.9448 180.642 51.9415C180.663 51.9387 180.701 51.9334 180.741 51.9318H180.742C180.81 51.9293 180.876 51.9312 180.932 51.9327C180.99 51.9343 181.038 51.9345 181.086 51.9337C181.384 51.9286 181.684 51.9319 181.982 51.9435C182.168 51.9505 182.354 51.9602 182.539 51.9738H182.54C182.805 51.9939 183.072 52.0208 183.341 52.0577C189.077 52.7725 194.156 56.5173 196.402 61.7472C196.945 63.0103 197.333 64.3559 197.513 65.7726C198.16 70.8723 196.375 75.5641 193.178 78.8829C190.376 81.7904 186.487 83.632 182.158 83.7482C182.097 83.7498 182.037 83.7545 181.964 83.7599C181.894 83.7651 181.813 83.7706 181.729 83.7706C180.017 83.7706 178.351 83.5193 176.794 83.0323C175.463 82.616 174.2 82.0313 173.087 81.215C171.259 79.8742 168.884 79.0656 166.632 78.5822C163.824 77.9793 161.477 79.7733 160.664 82.4728C160.532 82.9124 160.433 83.3637 160.389 83.8322C160.314 84.6257 160.241 85.4102 160.171 86.1876C159.019 98.9174 158.458 109.411 157.974 116.889C157.732 120.625 157.509 123.615 157.24 125.751C157.106 126.818 156.959 127.684 156.79 128.327C156.705 128.649 156.613 128.924 156.509 129.146C156.407 129.361 156.281 129.555 156.114 129.681H156.113C155.811 129.907 155.278 130.08 154.595 130.223C153.894 130.369 152.98 130.495 151.87 130.598C149.65 130.804 146.62 130.924 142.888 130.941C135.42 130.974 125.12 130.595 112.823 129.661C109.607 129.417 107.239 126.546 107.639 123.342C107.985 120.564 108.834 117.271 110.796 114.821C110.816 114.797 110.835 114.77 110.861 114.733C110.886 114.698 110.917 114.655 110.953 114.612L110.954 114.611C112.751 112.481 113.37 109.457 113.37 106.373C113.37 97.2819 105.424 90.0469 96.0967 91.2345C94.6214 91.4224 93.2191 91.8377 91.915 92.4376C86.3414 95.0016 82.5893 100.975 82.8311 107.337C82.9347 110.069 83.6967 112.614 85.2393 114.586C87.1545 117.035 88.0496 120.122 88.458 122.77C88.9647 126.055 86.563 129.093 83.2354 129.281C70.4955 130.001 58.7429 130.089 49.9824 129.838C45.6029 129.712 41.9671 129.501 39.3281 129.242C38.0094 129.113 36.9331 128.971 36.1357 128.82C35.7376 128.745 35.4027 128.666 35.1387 128.583C34.8863 128.504 34.6596 128.411 34.5117 128.288V128.287C34.3393 128.144 34.2492 127.912 34.1934 127.688C34.1338 127.448 34.096 127.146 34.0752 126.795C34.0336 126.091 34.0552 125.135 34.123 123.961C34.2589 121.611 34.5836 118.342 34.9805 114.37C35.7749 106.42 36.8646 95.6257 37.3398 83.631C37.4687 80.376 34.4584 77.8939 31.2773 78.6154C29.1201 79.1045 26.7896 79.9129 24.8389 81.2433C21.9713 83.1985 18.3633 84.0742 14.5723 83.6857C7.13987 82.9236 1.33389 77.2417 0.443359 69.8224C-0.716828 60.1533 6.80334 51.9366 16.2422 51.9366C19.3989 51.9367 22.5409 52.6385 24.8926 54.5001C26.5674 55.8255 28.7537 56.6312 30.8564 57.1163C34.0788 57.8597 37.1183 55.2956 36.9209 51.9962C36.1937 39.8473 35.0578 27.6297 34.3857 18.1759C34.0502 13.4552 33.8306 9.42269 33.8379 6.44543C33.8415 4.9581 33.9015 3.72271 34.0352 2.79211C34.1019 2.32711 34.1883 1.92747 34.2998 1.60657C34.4088 1.29277 34.5539 1.01764 34.7607 0.839966C34.9616 0.66752 35.2355 0.554996 35.5449 0.479614C35.8585 0.403271 36.2359 0.358305 36.667 0.338013Z" fill="#EFEFEF" stroke="black" stroke-width="0.650522"/>
</svg>
