<svg width="198" height="131" viewBox="0 0 198 131" fill="none" xmlns="http://www.w3.org/2000/svg">
<path d="M154.982 0.347778C155.314 0.324857 155.6 0.318409 155.83 0.33313C156.047 0.347016 156.265 0.38143 156.426 0.476685C156.534 0.54081 156.616 0.636781 156.678 0.730591C156.741 0.826868 156.798 0.941597 156.849 1.0675C156.951 1.3195 157.043 1.6497 157.131 2.04504C157.306 2.83785 157.468 3.93834 157.62 5.30286C157.925 8.03439 158.196 11.8624 158.462 16.4923C158.993 25.7486 159.506 38.2569 160.222 51.6613L160.223 51.6935V51.6945C160.223 51.6979 160.224 51.7034 160.225 51.7091C160.225 51.7103 160.225 51.7116 160.225 51.713L160.249 52.0216C160.573 55.1903 163.194 57.5615 166.271 56.9572C168.64 56.492 171.182 55.6499 173.112 54.1476C174.38 53.1605 175.868 52.515 177.448 52.1066C177.706 52.0344 177.965 51.9729 178.224 51.9181H178.228C178.466 51.8701 178.712 51.8209 178.965 51.7833L179.363 51.7277C179.764 51.6761 180.172 51.6376 180.593 51.6173H180.594C180.602 51.6169 180.611 51.6159 180.638 51.6124C180.659 51.6096 180.697 51.6051 180.738 51.6036H180.933C180.993 51.6053 181.041 51.6074 181.09 51.6066L181.532 51.6036C181.68 51.6048 181.828 51.6086 181.976 51.6144C182.164 51.6217 182.352 51.6314 182.541 51.6456C182.806 51.6656 183.072 51.692 183.34 51.7286H183.339C189.075 52.4434 194.154 56.1879 196.4 61.4181C196.943 62.6811 197.331 64.0268 197.511 65.4435C198.158 70.5436 196.372 75.2354 193.175 78.5538C190.461 81.3702 186.727 83.1871 182.561 83.4034L182.156 83.4191C182.095 83.4207 182.035 83.4253 181.962 83.4308C181.892 83.4361 181.81 83.4425 181.726 83.4425C180.015 83.4425 178.349 83.1902 176.792 82.7032C175.461 82.2872 174.198 81.7025 173.085 80.8859C171.258 79.5453 168.883 78.7375 166.631 78.254C163.823 77.6512 161.475 79.4448 160.662 82.1447C160.53 82.5838 160.431 83.0346 160.387 83.5031C160.312 84.297 160.24 85.0816 160.169 85.8595C159.017 98.5892 158.456 109.083 157.972 116.561C157.73 120.296 157.507 123.287 157.238 125.423C157.104 126.49 156.957 127.356 156.788 127.999C156.703 128.321 156.611 128.596 156.507 128.818C156.405 129.033 156.279 129.227 156.111 129.353C155.809 129.579 155.276 129.752 154.593 129.895C153.892 130.041 152.978 130.167 151.868 130.27C149.648 130.476 146.617 130.596 142.885 130.612C135.418 130.646 125.118 130.266 112.821 129.332C109.605 129.088 107.237 126.218 107.637 123.014C107.983 120.236 108.831 116.943 110.793 114.493C110.813 114.469 110.832 114.442 110.858 114.404C110.883 114.37 110.915 114.327 110.951 114.283L111.116 114.081C112.786 111.964 113.368 109.033 113.368 106.045C113.368 96.9537 105.422 89.7187 96.0947 90.9064C94.6193 91.0943 93.2163 91.5085 91.9121 92.1085C86.3386 94.6726 82.5873 100.647 82.8291 107.009C82.9331 109.741 83.6949 112.286 85.2373 114.258C87.1529 116.706 88.0477 119.794 88.4561 122.442C88.9629 125.727 86.5609 128.765 83.2334 128.953C70.4936 129.673 58.7409 129.76 49.9805 129.509C45.6008 129.383 41.9651 129.173 39.3262 128.914C38.0075 128.785 36.9321 128.642 36.1348 128.491C35.7368 128.416 35.4017 128.337 35.1377 128.255C34.8851 128.176 34.6576 128.081 34.5098 127.958C34.3377 127.814 34.2482 127.583 34.1924 127.359C34.1329 127.119 34.095 126.818 34.0742 126.467C34.0326 125.762 34.0552 124.806 34.123 123.632C34.259 121.282 34.5826 118.013 34.9795 114.041C35.774 106.091 36.8636 95.2966 37.3389 83.3019C37.4677 80.0472 34.4574 77.5648 31.2764 78.2863C29.1189 78.7754 26.7886 79.5841 24.8379 80.9142C24.4309 81.1917 24.0078 81.4413 23.5781 81.672L23.5771 81.671C23.3057 81.8262 23.0209 81.9553 22.7568 82.0773H22.7559C22.6035 82.1472 22.4507 82.2119 22.3008 82.2745L22.2998 82.2755C22.0054 82.3964 21.6889 82.5342 21.3555 82.6388L21.3545 82.6378C19.2571 83.3446 16.9505 83.6003 14.5713 83.3566C7.13935 82.5944 1.33259 76.9125 0.442383 69.4933C-0.00155275 65.7905 0.835449 62.3042 2.55859 59.4064C2.75654 59.065 2.9786 58.7417 3.19043 58.4308L3.19238 58.4279C3.21272 58.3986 3.23231 58.3681 3.25781 58.3273C3.28162 58.2892 3.31108 58.2421 3.34473 58.1954L3.3457 58.1945C6.23741 54.2048 10.9356 51.6086 16.2412 51.6085C17.011 51.6085 17.7777 51.6518 18.5312 51.7413C20.8766 52.0203 23.1108 52.7621 24.8916 54.172C26.5664 55.4976 28.7525 56.3031 30.8555 56.7882C34.0776 57.5317 37.1174 54.9667 36.9199 51.6671C36.1925 39.5152 35.7645 27.8546 35.8027 18.9845C35.8219 14.5505 35.9576 10.806 36.2324 8.04407C36.3697 6.66416 36.5425 5.51984 36.7559 4.65344C36.8625 4.22033 36.9809 3.84837 37.1143 3.54797C37.2454 3.25251 37.4022 2.99999 37.5977 2.83215C37.9665 2.51571 38.5859 2.33728 39.3535 2.23352C40.1388 2.1274 41.1465 2.09179 42.3516 2.11047C44.7628 2.14788 48.0117 2.40418 51.9551 2.77356C59.8502 3.5131 70.5551 4.71003 83.0205 5.547C86.333 5.76948 88.7862 8.80262 88.2324 12.0851C87.7829 14.7473 86.9238 17.8508 85.2715 20.2472C83.6674 22.5734 82.8359 25.4532 82.8359 28.5109C82.836 37.5256 90.6493 44.7154 99.875 43.6769L100.243 43.63C107.944 42.5496 113.775 35.0162 113.37 27.1906C113.235 24.572 112.498 22.1433 110.973 20.3038C109.075 18.0153 108.195 14.7877 107.789 12.0226C107.307 8.73144 109.787 5.76742 113.098 5.57141C125.435 4.8407 135.848 3.3438 143.36 2.13586C147.111 1.53277 150.153 0.999606 152.336 0.671997C153.428 0.508109 154.318 0.393698 154.982 0.347778Z" fill="#EFEFEF" stroke="black" stroke-width="0.650522"/>
</svg>
